<?xml version="1.0" encoding="utf-8"?>
<!-- Generator: Adobe Illustrator 19.1.0, SVG Export Plug-In . SVG Version: 6.00 Build 0)  -->
<svg fill="#fff"  version="1.1" id="Layer_1" xmlns="http://www.w3.org/2000/svg" xmlns:xlink="http://www.w3.org/1999/xlink" x="0px" y="0px"
	 viewBox="0 0 64 64" enable-background="new 0 0 64 64" xml:space="preserve">
<g id="Ellipsis">
	<path d="M32,0c-17.6730843,0-32,14.3268995-32,32s14.3269148,32,32,32s32-14.3269005,32-32S49.6730995,0,32,0z M32,62
		c-16.5419998,0-30-13.457901-30-30c0-16.5419998,13.4579992-30,30-30c16.542099,0,30,13.4580002,30,30
		C62,48.542099,48.542099,62,32,62z"/>
	<path d="M18,27c-2.7613993,0-4.999999,2.2385998-4.999999,5S15.2386007,37,18,37s5-2.2386017,5-5S20.7614002,27,18,27z M18,35
		c-1.6541996,0-3-1.3456993-3-3c0-1.6541996,1.3458004-3,3-3c1.6543007,0,3,1.3458004,3,3C21,33.6543007,19.6543007,35,18,35z"/>
	<path d="M32,27c-2.7614002,0-5,2.2385998-5,5s2.2385998,5,5,5s5-2.2386017,5-5S34.7613983,27,32,27z M32,35
		c-1.6541996,0-3-1.3456993-3-3c0-1.6541996,1.3458004-3,3-3c1.6543007,0,3,1.3458004,3,3C35,33.6543007,33.6543007,35,32,35z"/>
	<path d="M46,27c-2.7614021,0-5,2.2385998-5,5s2.2385979,5,5,5c2.7613983,0,5-2.2386017,5-5S48.7613983,27,46,27z M46,35
		c-1.6542015,0-3-1.3456993-3-3c0-1.6541996,1.3457985-3,3-3c1.6543007,0,3,1.3458004,3,3C49,33.6543007,47.6543007,35,46,35z"/>
</g>
<g>
</g>
<g>
</g>
<g>
</g>
<g>
</g>
<g>
</g>
<g>
</g>
<g>
</g>
<g>
</g>
<g>
</g>
<g>
</g>
<g>
</g>
<g>
</g>
<g>
</g>
<g>
</g>
<g>
</g>
</svg>
