<?xml version="1.0" encoding="iso-8859-1"?>
<!-- Generator: Adobe Illustrator 22.1.0, SVG Export Plug-In . SVG Version: 6.00 Build 0)  -->
<svg fill="#fff" version="1.1" xmlns="http://www.w3.org/2000/svg" xmlns:xlink="http://www.w3.org/1999/xlink" x="0px" y="0px"
	 viewBox="0 0 50 50" style="enable-background:new 0 0 50 50;" xml:space="preserve">
<g id="Layer_1">
	<path d="M25,1C11.767,1,1,11.767,1,25s10.767,24,24,24s24-10.767,24-24S38.233,1,25,1z M25,47C12.869,47,3,37.131,3,25
		S12.869,3,25,3s22,9.869,22,22S37.131,47,25,47z"/>
	<path d="M11,21c-2.206,0-4,1.794-4,4s1.794,4,4,4s4-1.794,4-4S13.206,21,11,21z M11,27c-1.103,0-2-0.897-2-2s0.897-2,2-2
		s2,0.897,2,2S12.103,27,11,27z"/>
	<path d="M25,21c-2.206,0-4,1.794-4,4s1.794,4,4,4s4-1.794,4-4S27.206,21,25,21z M25,27c-1.103,0-2-0.897-2-2s0.897-2,2-2
		s2,0.897,2,2S26.103,27,25,27z"/>
	<path d="M35,25c0,2.206,1.794,4,4,4s4-1.794,4-4s-1.794-4-4-4S35,22.794,35,25z M41,25c0,1.103-0.897,2-2,2s-2-0.897-2-2
		s0.897-2,2-2S41,23.897,41,25z"/>
</g>
<g>
</g>
</svg>
