<svg
  aria-label="Notifications"
  class="x1lliihq x1n2onr6"
  color="currentColor"
  fill="currentColor"
  height="24"
  role="img"
  viewBox="0 0 24 24"
  width="24"
>
  <title>Notifications</title>
  <path
    d="M17.075 1.987a5.852 5.852 0 0 0-5.07 2.66l-.008.012-.01-.014a5.878 5.878 0 0 0-5.062-2.658A6.719 6.719 0 0 0 .5 8.952c0 3.514 2.581 5.757 5.077 7.927.302.262.607.527.91.797l1.089.973c2.112 1.89 3.149 2.813 3.642 3.133a1.438 1.438 0 0 0 1.564 0c.472-.306 1.334-1.07 3.755-3.234l.978-.874c.314-.28.631-.555.945-.827 2.478-2.15 5.04-4.372 5.04-7.895a6.719 6.719 0 0 0-6.425-6.965Z"
  ></path>
</svg>